# xmcd
#
# Track frame offsets: 
#        150
#        14035
#        30164
#        43390
#        62390
#        78477
#        92964
#        108639
#        127489
#        143632
#        160017
#
# Disc length: 2332 seconds
#
# Revision: 0
# Processed by: cddbd v1.5.2PL0 Copyright (c) Steve Scherf et al.
# Submitted via: ExactAudioCopy v0.95b4
#
DISCID=95091a0b
DTITLE=Tom Jones - Best Of Tom Jones Vol. 2 Country Hits
DYEAR=2006
DGENRE=Country
TTITLE0=Green Green Grass Of Home
TTITLE1=Detroit City
TTITLE2=Funny Familiar Forgotten Feelings
TTITLE3=(It Looks Like) I'll Never Fall In Love Again
TTITLE4=Say You'll Stay Until Tomorrow
TTITLE5=Darlin'
TTITLE6=Lady Lay Down
TTITLE7=A Woman's Touch
TTITLE8=Touch Me (I'll Be Your Fool Once More)
TTITLE9=I've Been Rained On Too
TTITLE10=This Time
EXTD=
EXTT0=
EXTT1=
EXTT2=
EXTT3=
EXTT4=
EXTT5=
EXTT6=
EXTT7=
EXTT8=
EXTT9=
EXTT10=
PLAYORDER=
